<?xml version="1.0" encoding="UTF-8"?>
<svg version="1.1" xmlns="http://www.w3.org/2000/svg" width="1024" height="300">
<path d="M0 0 C67.98 0 135.96 0 206 0 C206 14.85 206 29.7 206 45 C216.23 45 226.46 45 237 45 C237 30.15 237 15.3 237 0 C336.66 0 436.32 0 539 0 C539 30.36 539 60.72 539 92 C507.98 92 476.96 92 445 92 C445 107.84 445 123.68 445 140 C476.02 140 507.04 140 539 140 C539 150.23 539 160.46 539 171 C560.45 171 581.9 171 604 171 C604 114.57 604 58.14 604 0 C729.4 0 854.8 0 984 0 C984 78.54 984 157.08 984 238 C737.49 238 490.98 238 237 238 C237 221.5 237 205 237 188 C226.77 188 216.54 188 206 188 C206 204.5 206 221 206 238 C138.02 238 70.04 238 0 238 C0 159.46 0 80.92 0 0 Z " fill="#000000" transform="translate(20,31)"/>
<path d="M0 0 C26.4 0 52.8 0 80 0 C80 10.89 80 21.78 80 33 C100.79 33 121.58 33 143 33 C143 22.11 143 11.22 143 0 C169.4 0 195.8 0 223 0 C223 68.64 223 137.28 223 208 C196.6 208 170.2 208 143 208 C143 181.6 143 155.2 143 128 C137.72 128 132.44 128 127 128 C127 138.23 127 148.46 127 159 C116.77 159 106.54 159 96 159 C96 148.77 96 138.54 96 128 C90.72 128 85.44 128 80 128 C80 154.4 80 180.8 80 208 C53.6 208 27.2 208 0 208 C0 139.36 0 70.72 0 0 Z " fill="#FFA101" transform="translate(130,43)"/>
<path d="M0 0 C52.47 0 104.94 0 159 0 C159 36.96 159 73.92 159 112 C148.77 112 138.54 112 128 112 C128 117.28 128 122.56 128 128 C138.23 128 148.46 128 159 128 C159 154.4 159 180.8 159 208 C137.88 208 116.76 208 95 208 C95 181.6 95 155.2 95 128 C84.44 128 73.88 128 63 128 C63 154.4 63 180.8 63 208 C42.21 208 21.42 208 0 208 C0 139.36 0 70.72 0 0 Z " fill="#FFDE00" transform="translate(639,43)"/>
<path d="M0 0 C57.75 0 115.5 0 175 0 C175 21.45 175 42.9 175 65 C143.65 65 112.3 65 80 65 C80 91.07 80 117.14 80 144 C111.35 144 142.7 144 175 144 C175 165.12 175 186.24 175 208 C117.25 208 59.5 208 0 208 C0 139.36 0 70.72 0 0 Z " fill="#FFF100" transform="translate(369,43)"/>
<path d="M0 0 C52.47 0 104.94 0 159 0 C159 16.17 159 32.34 159 49 C127.65 49 96.3 49 64 49 C64 59.23 64 69.46 64 80 C95.35 80 126.7 80 159 80 C159 95.84 159 111.68 159 128 C127.65 128 96.3 128 64 128 C64 138.23 64 148.46 64 159 C95.35 159 126.7 159 159 159 C159 175.17 159 191.34 159 208 C106.53 208 54.06 208 0 208 C0 139.36 0 70.72 0 0 Z " fill="#FFA200" transform="translate(830,43)"/>
<path d="M0 0 C26.4 0 52.8 0 80 0 C80 68.64 80 137.28 80 208 C53.6 208 27.2 208 0 208 C0 181.6 0 155.2 0 128 C-5.28 128 -10.56 128 -16 128 C-16 127.01 -16 126.02 -16 125 C-13.36 125 -10.72 125 -8 125 C-8 112.79 -8 100.58 -8 88 C-11.96 88 -15.92 88 -20 88 C-20 83.71 -20 79.42 -20 75 C-11.75 75 -3.5 75 5 75 C5 67.08 5 59.16 5 51 C-1.93 51 -8.86 51 -16 51 C-16 45.06 -16 39.12 -16 33 C-10.72 33 -5.44 33 0 33 C0 22.11 0 11.22 0 0 Z " fill="#FFCF00" transform="translate(273,43)"/>
<path d="M0 0 C26.07 0 52.14 0 79 0 C79 68.64 79 137.28 79 208 C52.93 208 26.86 208 0 208 C0 139.36 0 70.72 0 0 Z " fill="#FF8101" transform="translate(35,43)"/>
<path d="M0 0 C8.25 0 16.5 0 25 0 C25 4.29 25 8.58 25 13 C28.96 13 32.92 13 37 13 C37 25.21 37 37.42 37 50 C33.04 50 29.08 50 25 50 C25 45.71 25 41.42 25 37 C16.75 37 8.5 37 0 37 C0 41.29 0 45.58 0 50 C-3.96 50 -7.92 50 -12 50 C-12 37.79 -12 25.58 -12 13 C-8.04 13 -4.08 13 0 13 C0 8.71 0 4.42 0 0 Z " fill="#FF6D01" transform="translate(228,118)"/>
<path d="M0 0 C10.89 0 21.78 0 33 0 C33 10.56 33 21.12 33 32 C22.11 32 11.22 32 0 32 C0 21.44 0 10.88 0 0 Z " fill="#FFFE00" transform="translate(575,219)"/>
<path d="M0 0 C10.56 0 21.12 0 32 0 C32 10.23 32 20.46 32 31 C21.44 31 10.88 31 0 31 C0 20.77 0 10.54 0 0 Z " fill="#000000" transform="translate(702,92)"/>
<path d="M0 0 C8.25 0 16.5 0 25 0 C25 7.92 25 15.84 25 24 C16.75 24 8.5 24 0 24 C0 16.08 0 8.16 0 0 Z " fill="#FF6D00" transform="translate(253,94)"/>
<path d="M0 0 C7.92 0 15.84 0 24 0 C24 7.92 24 15.84 24 24 C16.08 24 8.16 24 0 24 C0 16.08 0 8.16 0 0 Z " fill="#FF6E02" transform="translate(204,94)"/>
<path d="M0 0 C10.23 0 20.46 0 31 0 C31 5.28 31 10.56 31 16 C20.77 16 10.54 16 0 16 C0 10.72 0 5.44 0 0 Z " fill="#000000" transform="translate(226,76)"/>
</svg>
